<svg xmlns="http://www.w3.org/2000/svg" style="display: none;"><symbol id="more" viewBox="0 0 384 384"><title>more</title><g> <g> <circle cx="192" cy="42.667" r="42.667"/> </g> </g><g> <g> <circle cx="192" cy="192" r="42.667"/> </g> </g><g> <g> <circle cx="192" cy="341.333" r="42.667"/> </g> </g></symbol><symbol id="bell" viewBox="0 0 512 512"><title>bell</title><path d="m450.201 407.453c-1.505-.977-12.832-8.912-24.174-32.917-20.829-44.082-25.201-106.18-25.201-150.511 0-.193-.004-.384-.011-.576-.227-58.589-35.31-109.095-85.514-131.756v-34.657c0-31.45-25.544-57.036-56.942-57.036h-4.719c-31.398 0-56.942 25.586-56.942 57.036v34.655c-50.372 22.734-85.525 73.498-85.525 132.334 0 44.331-4.372 106.428-25.201 150.511-11.341 24.004-22.668 31.939-24.174 32.917-6.342 2.935-9.469 9.715-8.01 16.586 1.473 6.939 7.959 11.723 15.042 11.723h109.947c.614 42.141 35.008 76.238 77.223 76.238s76.609-34.097 77.223-76.238h109.947c7.082 0 13.569-4.784 15.042-11.723 1.457-6.871-1.669-13.652-8.011-16.586zm-223.502-350.417c0-14.881 12.086-26.987 26.942-26.987h4.719c14.856 0 26.942 12.106 26.942 26.987v24.917c-9.468-1.957-19.269-2.987-29.306-2.987-10.034 0-19.832 1.029-29.296 2.984v-24.914zm29.301 424.915c-25.673 0-46.614-20.617-47.223-46.188h94.445c-.608 25.57-21.549 46.188-47.222 46.188zm60.4-76.239c-.003 0-213.385 0-213.385 0 2.595-4.044 5.236-8.623 7.861-13.798 20.104-39.643 30.298-96.129 30.298-167.889 0-63.417 51.509-115.01 114.821-115.01s114.821 51.593 114.821 115.06c0 .185.003.369.01.553.057 71.472 10.25 127.755 30.298 167.286 2.625 5.176 5.267 9.754 7.861 13.798z"/></symbol><symbol id="users" viewBox="0 0 477.869 477.869"><title>users</title><path d="M387.415,233.496c48.976-44.029,52.987-119.424,8.958-168.4C355.991,20.177,288.4,12.546,239.02,47.332 c-53.83-37.99-128.264-25.149-166.254,28.68c-34.859,49.393-27.259,117.054,17.689,157.483 c-55.849,29.44-90.706,87.481-90.453,150.613v51.2c0,9.426,7.641,17.067,17.067,17.067h443.733 c9.426,0,17.067-7.641,17.067-17.067v-51.2C478.121,320.976,443.264,262.935,387.415,233.496z M307.201,59.842 c47.062-0.052,85.256,38.057,85.309,85.119c0.037,33.564-19.631,64.023-50.237,77.799c-1.314,0.597-2.628,1.143-3.959,1.707 c-4.212,1.699-8.556,3.051-12.988,4.045c-0.853,0.188-1.707,0.29-2.577,0.461c-4.952,0.949-9.977,1.457-15.019,1.519 c-2.27,0-4.557-0.171-6.827-0.375c-0.853,0-1.707,0-2.56-0.171c-9.7-1.142-19.136-3.923-27.904-8.226 c-0.324-0.154-0.7-0.137-1.024-0.273c-1.707-0.819-3.413-1.536-4.932-2.458c0.137-0.171,0.222-0.358,0.358-0.529 c7.826-10.056,13.996-21.296,18.278-33.297l0.529-1.434c1.947-5.732,3.459-11.602,4.523-17.562c0.154-0.87,0.273-1.707,0.41-2.645 c0.987-6.067,1.506-12.2,1.553-18.347c-0.049-6.135-0.568-12.257-1.553-18.313c-0.137-0.887-0.256-1.707-0.41-2.645 c-1.064-5.959-2.576-11.83-4.523-17.562l-0.529-1.434c-4.282-12.001-10.453-23.241-18.278-33.297 c-0.137-0.171-0.222-0.358-0.358-0.529C277.449,63.831,292.19,59.843,307.201,59.842z M85.335,145.176 c-0.121-47.006,37.886-85.21,84.892-85.331c22.034-0.057,43.232,8.434,59.134,23.686c0.99,0.956,1.963,1.911,2.918,2.901 c2.931,3.071,5.634,6.351,8.09,9.813c0.751,1.058,1.434,2.185,2.133,3.277c2.385,3.671,4.479,7.523,6.263,11.52 c0.427,0.973,0.751,1.963,1.126,2.935c1.799,4.421,3.215,8.989,4.233,13.653c0.12,0.512,0.154,1.024,0.256,1.553 c2.162,10.597,2.162,21.522,0,32.119c-0.102,0.529-0.137,1.041-0.256,1.553c-1.017,4.664-2.433,9.232-4.233,13.653 c-0.375,0.973-0.7,1.963-1.126,2.935c-1.786,3.991-3.88,7.837-6.263,11.503c-0.7,1.092-1.382,2.219-2.133,3.277 c-2.455,3.463-5.159,6.742-8.09,9.813c-0.956,0.99-1.929,1.946-2.918,2.901c-6.91,6.585-14.877,11.962-23.569,15.906 c-1.382,0.631-2.782,1.212-4.198,1.707c-4.114,1.633-8.347,2.945-12.663,3.925c-1.075,0.239-2.185,0.375-3.277,0.563 c-4.634,0.863-9.333,1.336-14.046,1.417h-1.877c-4.713-0.08-9.412-0.554-14.046-1.417c-1.092-0.188-2.202-0.324-3.277-0.563 c-4.316-0.98-8.55-2.292-12.663-3.925c-1.417-0.563-2.816-1.143-4.198-1.707C105.013,209.057,85.374,178.677,85.335,145.176z M307.201,418.242H34.135v-34.133c-0.25-57.833,36.188-109.468,90.76-128.614c29.296,12.197,62.249,12.197,91.546,0 c5.698,2.082,11.251,4.539,16.623,7.356c3.55,1.826,6.827,3.908,10.24,6.007c2.219,1.382,4.471,2.731,6.605,4.25 c3.294,2.338,6.4,4.881,9.455,7.492c1.963,1.707,3.908,3.413,5.751,5.12c2.816,2.662,5.461,5.478,8.004,8.363 c1.826,2.082,3.601,4.198,5.291,6.383c2.236,2.867,4.369,5.803,6.349,8.823c1.707,2.56,3.226,5.222,4.727,7.885 c1.707,2.935,3.277,5.871,4.71,8.926c1.434,3.055,2.697,6.4,3.925,9.66c1.075,2.833,2.219,5.649,3.106,8.533 c1.195,3.959,2.031,8.055,2.867,12.151c0.512,2.423,1.178,4.796,1.553,7.253c1.011,6.757,1.53,13.579,1.553,20.412V418.242z M443.735,418.242h-102.4v-34.133c0-5.342-0.307-10.633-0.785-15.872c-0.137-1.536-0.375-3.055-0.546-4.591 c-0.461-3.772-0.99-7.509-1.707-11.213c-0.307-1.581-0.631-3.169-0.973-4.762c-0.819-3.8-1.769-7.566-2.85-11.298 c-0.358-1.229-0.683-2.475-1.058-3.686c-4.779-15.277-11.704-29.797-20.565-43.127l-0.666-0.973 c-2.935-4.358-6.07-8.573-9.404-12.646l-0.119-0.154c-3.413-4.232-7.117-8.346-11.008-12.237c0.222,0,0.461,0,0.7,0 c4.816,0.633,9.666,0.975,14.524,1.024h0.939c4.496-0.039,8.985-0.33,13.449-0.87c1.399-0.171,2.782-0.427,4.181-0.649 c3.63-0.557,7.214-1.28,10.752-2.167c1.007-0.256,2.031-0.495,3.055-0.785c4.643-1.263,9.203-2.814,13.653-4.642 c54.612,19.127,91.083,70.785,90.829,128.649V418.242z"/></symbol><symbol id="home" viewBox="0 0 512 512"><title>home</title><path d="M503.401,228.884l-43.253-39.411V58.79c0-8.315-6.741-15.057-15.057-15.057H340.976c-8.315,0-15.057,6.741-15.057,15.057 v8.374l-52.236-47.597c-10.083-9.189-25.288-9.188-35.367-0.001L8.598,228.885c-8.076,7.36-10.745,18.7-6.799,28.889 c3.947,10.189,13.557,16.772,24.484,16.772h36.689v209.721c0,8.315,6.741,15.057,15.057,15.057h125.913 c8.315,0,15.057-6.741,15.057-15.057V356.931H293v127.337c0,8.315,6.741,15.057,15.057,15.057h125.908 c8.315,0,15.057-6.741,15.056-15.057V274.547h36.697c10.926,0,20.537-6.584,24.484-16.772 C514.147,247.585,511.479,236.245,503.401,228.884z M433.965,244.433c-8.315,0-15.057,6.741-15.057,15.057v209.721h-95.793 V341.874c0-8.315-6.742-15.057-15.057-15.057H203.942c-8.315,0-15.057,6.741-15.057,15.057v127.337h-95.8V259.49 c0-8.315-6.741-15.057-15.057-15.057H36.245l219.756-200.24l74.836,68.191c4.408,4.016,10.771,5.051,16.224,2.644 c5.454-2.41,8.973-7.812,8.973-13.774V73.847h74.002v122.276c0,4.237,1.784,8.276,4.916,11.13l40.803,37.18H433.965z"/></symbol><symbol id="settings" viewBox="0 0 512 512"><title>settings</title><path d="M496.659,312.128l-47.061-36.8c0.619-5.675,1.109-12.309,1.109-19.328s-0.512-13.653-1.109-19.328l47.104-36.821 c8.747-6.912,11.157-19.179,5.568-29.397l-48.939-84.672c-5.355-9.749-17.365-14.208-28.309-10.176l-55.531,22.293 c-10.624-7.68-21.781-14.165-33.323-19.349l-8.448-58.901C326.334,8.448,316.606,0,305.107,0h-98.133 c-11.499,0-21.227,8.448-22.592,19.435l-8.469,59.115c-11.179,5.056-22.165,11.435-33.28,19.371l-55.68-22.357 c-10.645-4.16-22.763,0.235-28.096,10.005l-49.003,84.8c-5.781,9.771-3.413,22.443,5.547,29.525l47.061,36.779 c-0.747,7.211-1.109,13.461-1.109,19.328s0.363,12.117,1.067,19.328l-47.104,36.843C6.59,319.083,4.2,331.349,9.768,341.568 l48.939,84.672c5.312,9.728,17.301,14.165,28.309,10.176l55.531-22.293c10.624,7.659,21.803,14.144,33.344,19.349l8.448,58.88 c1.387,11.2,11.115,19.648,22.613,19.648h98.133c11.499,0,21.227-8.448,22.592-19.435l8.469-59.093 c11.179-5.056,22.165-11.435,33.28-19.371l55.68,22.357c10.603,4.117,22.763-0.235,28.096-10.005l49.195-85.099 C507.838,331.371,505.448,319.104,496.659,312.128z M483.752,330.901l-50.816,85.717l-61.077-24.533 c-3.456-1.387-7.381-0.853-10.368,1.365c-13.227,9.899-26.005,17.344-39.104,22.699c-3.499,1.429-5.995,4.608-6.528,8.363 l-10.773,66.155l-99.563-1.131l-9.323-65.003c-0.555-3.755-3.029-6.933-6.528-8.363c-13.632-5.589-26.752-13.205-39.019-22.635 c-1.899-1.472-4.203-2.219-6.507-2.219c-1.344,0-2.688,0.235-3.989,0.768l-62.827,23.701l-48.939-84.672 c-0.448-0.832-0.363-1.792,0.149-2.197l51.776-40.469c2.944-2.304,4.48-6.016,4.011-9.728c-1.131-8.939-1.643-16.171-1.643-22.72 s0.533-13.76,1.643-22.72c0.469-3.733-1.067-7.424-4.011-9.728L28.286,181.12l50.816-85.717l61.077,24.533 c3.477,1.408,7.381,0.875,10.389-1.365c13.205-9.92,26.005-17.344,39.104-22.699c3.499-1.451,5.973-4.629,6.507-8.363 l10.795-66.176l99.584,1.152l9.301,65.024c0.555,3.755,3.029,6.933,6.528,8.363c13.611,5.568,26.731,13.184,39.019,22.635 c3.008,2.304,6.955,2.859,10.475,1.429l62.827-23.701l48.939,84.672c0.448,0.832,0.363,1.771-0.149,2.176l-51.776,40.469 c-2.944,2.304-4.48,5.995-4.011,9.728c0.811,6.485,1.643,14.272,1.643,22.72c0,8.469-0.832,16.235-1.643,22.72 c-0.469,3.712,1.067,7.424,4.011,9.728l51.712,40.448C483.987,329.344,484.094,330.304,483.752,330.901z"/><path d="M256.019,149.333c-58.816,0-106.667,47.851-106.667,106.667s47.851,106.667,106.667,106.667 c58.816,0,106.667-47.851,106.667-106.667S314.835,149.333,256.019,149.333z M256.019,341.333 c-47.061,0-85.333-38.272-85.333-85.333s38.272-85.333,85.333-85.333c47.061,0,85.333,38.272,85.333,85.333 S303.08,341.333,256.019,341.333z"/></symbol><symbol id="loupe" viewBox="0 0 512.005 512.005"><title>loupe</title><path d="M505.749,475.587l-145.6-145.6c28.203-34.837,45.184-79.104,45.184-127.317c0-111.744-90.923-202.667-202.667-202.667 S0,90.925,0,202.669s90.923,202.667,202.667,202.667c48.213,0,92.48-16.981,127.317-45.184l145.6,145.6 c4.16,4.16,9.621,6.251,15.083,6.251s10.923-2.091,15.083-6.251C514.091,497.411,514.091,483.928,505.749,475.587z M202.667,362.669c-88.235,0-160-71.765-160-160s71.765-160,160-160s160,71.765,160,160S290.901,362.669,202.667,362.669z"/></symbol><symbol id="menu" viewBox="0 -53 384 384"><title>menu</title><path d="m368 154.667969h-352c-8.832031 0-16-7.167969-16-16s7.167969-16 16-16h352c8.832031 0 16 7.167969 16 16s-7.167969 16-16 16zm0 0"/><path d="m368 32h-352c-8.832031 0-16-7.167969-16-16s7.167969-16 16-16h352c8.832031 0 16 7.167969 16 16s-7.167969 16-16 16zm0 0"/><path d="m368 277.332031h-352c-8.832031 0-16-7.167969-16-16s7.167969-16 16-16h352c8.832031 0 16 7.167969 16 16s-7.167969 16-16 16zm0 0"/></symbol><symbol id="information" viewBox="0 0 512 512"><title>information</title><path d="m240 309.486h-30v-60h-60v30h30v30h-30v30h90z"/><path d="m180 189.486h30v30h-30z"/><path d="m120 9.486v90h-120v330h30v73.028l109.542-73.028h250.458v-76.972l90 60v-73.028h32v-330h-392zm240 390h-229.542l-70.458 46.972v-46.972h-30v-270h330zm122-90h-32v46.972l-60-40v-216.972h-240v-60h332z"/></symbol></svg>
